. 
 
http://www.torrenting.com          :     Once & For all ;)


               www . Torrenting . Com 

(((((((((((((= Enjoy No RAR releases =))))))))))))))))))))


...................................NFO:....................................

.[img]http://img835.imageshack.us/img835/4470/thehuntersdvd.jpg[/img]


[color=blue][size=5][b]The.Hunters.2011.DVDRip.XVID.AC3.HQ.Hive-CM8[/b][/size][/color]


[b]Thx Hive

CM8 Doing It Right The First Time :D


Source: DVD-R

Encode:
DVD quality was very nice, added brightness, sharpness, rgb and denoise
got very nice
enjoy

Video: 720x384 @bitrate 1700 2pass
Audio: English AC3 5.1 @384
Sample: Yes, included[/b]
 
http://www.imdb.com/title/tt1591504/


General
Complete name                  : The.Hunters.2011.DVDRip.XVID.AC3.HQ.Hive-CM8.avi
Format                         : AVI
Format/Info                    : Audio Video Interleave
File size                      : 1.63 GiB
Duration                       : 1h 51mn
Overall bit rate               : 2 093 Kbps
Writing application            : Nandub v1.0rc2
Writing library                : Nandub build 1853/release

Video
ID                             : 0
Format                         : MPEG-4 Visual
Format profile                 : Advanced Simple@L5
Format settings, BVOP          : 2
Format settings, QPel          : Yes
Format settings, GMC           : No warppoints
Format settings, Matrix        : Default (H.263)
Muxing mode                    : Packed bitstream
Codec ID                       : XVID
Codec ID/Hint                  : XviD
Duration                       : 1h 51mn
Bit rate                       : 1 699 Kbps
Width                          : 720 pixels
Height                         : 384 pixels
Display aspect ratio           : 1.875
Frame rate                     : 23.976 fps
Color space                    : YUV
Chroma subsampling             : 4:2:0
Bit depth                      : 8 bits
Scan type                      : Progressive
Compression mode               : Lossy
Bits/(Pixel*Frame)             : 0.256
Stream size                    : 1.32 GiB (81%)
Writing library                : XviD 1.2.1 (UTC 2008-12-04)

Audio
ID                             : 1
Format                         : AC-3
Format/Info                    : Audio Coding 3
Mode extension                 : CM (complete main)
Codec ID                       : 2000
Duration                       : 1h 51mn
Bit rate mode                  : Constant
Bit rate                       : 384 Kbps
Channel(s)                     : 6 channels
Channel positions              : Front: L C R, Side: L R, LFE
Sampling rate                  : 48.0 KHz
Bit depth                      : 16 bits
Compression mode               : Lossy
Stream size                    : 306 MiB (18%)
Alignment                      : Split accross interleaves
Interleave, duration           : 42 ms (1.00 video frame)
Interleave, preload duration   : 500 ms


Plot:
six characters are inexorably drawn toward a tragic destiny.
They are reunited by chance in an isolated place where
reality collapses and turns into a nightmare.


Cast:
Steven Waddington   ...    Ronny
Tony Becker         ...    Oliver Sheribow
Dianna Agron        ...    Alice
Terence Knox        ...    Bernard


[img]http://img684.imageshack.us/img684/6625/32813841.png[/img]
[img]http://img716.imageshack.us/img716/6236/huhuq.png[/img]
[img]http://img838.imageshack.us/img838/2532/huhuhup.png[/img]
[img]http://img707.imageshack.us/img707/5364/huhuhuhur.png[/img]
[img]http://img215.imageshack.us/img215/8436/huhuhuhuhu.png[/img]
[img]http://img252.imageshack.us/img252/6558/huhuhuhuhuhu.png[/img]



Greetz

ViSiON,SPK,SANTi,3LT0N,FUSiON,YanKeeS,MAGNET,Feel-Free,THC,LKRG,BHRG
FANTASIA-PLAY,FANTASIA-M,FLAWL3SS,WBZ,ZMG,NOVA,D2U,Vik,Rapeseed
T0XiC,SAFC,goldadvance,MEMORY100,KaN1vE,Unevano,Pinnz,Wayne
Mr Hive,and most P2P groups
Great Work Guys :D

LOOKING FOR ANYTHING YOU WANT TO LOOK AND SOUND BETTER

CM8@hushmail.com